<?xml version="1.0" encoding="utf-8"?>
<!-- Generator: Adobe Illustrator 16.0.0, SVG Export Plug-In . SVG Version: 6.00 Build 0)  -->
<!DOCTYPE svg PUBLIC "-//W3C//DTD SVG 1.1//EN" "http://www.w3.org/Graphics/SVG/1.1/DTD/svg11.dtd">
<svg version="1.1" id="Layer_1" xmlns="http://www.w3.org/2000/svg" xmlns:xlink="http://www.w3.org/1999/xlink" x="0px" y="0px"
	 width="139.967px" height="140.057px" viewBox="0 0 139.967 140.057" enable-background="new 0 0 139.967 140.057"
	 xml:space="preserve">
<path fill="#282828" d="M139.967,70.063c-0.047,38.695-31.394,70.029-70.021,69.994C31.289,140.021-0.047,108.631,0,69.99
	C0.046,31.292,31.379-0.028,70.019,0C108.67,0.029,140.013,31.425,139.967,70.063z M92.821,114.333
	c1.459,0.014,1.699-0.434,1.693-1.754c-0.053-10.074-0.022-20.148-0.033-30.224c0-1.407,0.463-3.265-0.248-4.104
	c-0.83-0.984-2.758-0.165-4.192-0.344c-1.206-0.15-1.565,0.244-1.558,1.505c0.059,9.182,0.01,18.364,0.06,27.547
	c0.007,1.17-0.271,1.494-1.467,1.49c-14.324-0.044-28.649-0.04-42.974-0.007c-1.101,0.005-1.526-0.16-1.517-1.421
	c0.065-8.236,0.039-16.476,0.029-24.713c-0.002-1.408,0.473-3.3-0.243-4.097c-0.825-0.919-2.758-0.146-4.195-0.311
	c-1.236-0.14-1.563,0.292-1.558,1.537c0.051,11.071,0.064,22.144-0.013,33.214c-0.01,1.474,0.455,1.674,1.751,1.665
	c9.024-0.053,18.05-0.027,27.074-0.026C74.562,114.293,83.692,114.252,92.821,114.333z M64.948,102.475
	c5.458,0,10.914-0.018,16.373,0.019c0.902,0.007,1.324-0.141,1.269-1.187c-0.094-1.727-0.08-3.464-0.004-5.191
	c0.04-0.93-0.295-1.112-1.155-1.11c-10.914,0.032-21.83,0.039-32.745,0.01c-0.936-0.002-1.125,0.313-1.094,1.16
	c0.061,1.677,0.084,3.36-0.004,5.035c-0.055,1.041,0.267,1.322,1.303,1.313c5.353-0.051,10.705-0.022,16.057-0.022
	C64.948,102.498,64.948,102.482,64.948,102.475z M105.263,60.377c0.717-0.111,0.91-0.368,0.758-1.147
	c-0.533-2.719-0.949-5.46-1.422-8.19c-1.382-7.987-2.774-15.974-4.144-23.962c-0.163-0.949-0.353-1.474-1.567-1.134
	c-1.553,0.436-3.183,0.615-4.789,0.824c-0.998,0.129-1.259,0.539-1.082,1.534c1.896,10.711,3.76,21.427,5.604,32.146
	c0.12,0.696,0.287,1.104,1.235,0.825C101.547,60.991,103.401,60.667,105.263,60.377z M77.292,33.369
	c-1.729,1.177-3.452,2.364-5.189,3.529c-0.65,0.438-0.183,0.777,0.059,1.13c6.188,9.08,12.388,18.152,18.558,27.246
	c0.448,0.661,0.746,0.798,1.427,0.295c1.476-1.084,3.002-2.098,4.535-3.1c0.57-0.371,0.789-0.621,0.315-1.309
	c-6.25-9.104-12.463-18.229-18.69-27.349c-0.172-0.254-0.383-0.48-0.572-0.715C77.562,33.205,77.422,33.281,77.292,33.369z
	 M84.685,75.438c-10.604-2.867-21.214-5.721-31.815-8.6c-0.721-0.195-1.011-0.074-1.191,0.695c-0.418,1.781-0.923,3.545-1.448,5.299
	c-0.238,0.798,0,1.063,0.792,1.274c10.615,2.829,21.221,5.694,31.825,8.563c0.58,0.157,0.937,0.199,1.119-0.559
	c0.465-1.931,1.029-3.839,1.609-5.957C85.881,75.463,85.127,75.558,84.685,75.438z M89.122,66.573
	c-9.414-5.556-18.833-11.101-28.237-16.672c-0.649-0.384-0.992-0.451-1.402,0.313c-0.814,1.521-1.687,3.017-2.646,4.448
	c-0.636,0.946-0.389,1.339,0.532,1.877c8.266,4.823,16.5,9.703,24.745,14.563c1.351,0.796,2.879,2.392,4.021,2.153
	c1.317-0.273,1.744-2.521,2.634-3.864c0.434-0.651,0.793-1.352,1.225-2.092C89.865,66.881,89.448,66.766,89.122,66.573z
	 M50.927,82.452c-0.313-0.028-0.648,0.005-0.937-0.095c-1.241-0.429-1.488,0.155-1.536,1.27c-0.073,1.674-0.287,3.342-0.488,5.007
	c-0.095,0.786,0.111,1.046,0.963,1.123c10.911,0.979,21.818,2.005,32.722,3.045c0.795,0.075,1.142-0.093,1.188-0.942
	c0.103-1.829,0.255-3.659,0.452-5.483c0.079-0.744-0.126-1.004-0.891-1.072C71.91,84.366,61.419,83.4,50.927,82.44
	C50.927,82.444,50.927,82.448,50.927,82.452z"/>
</svg>
