<?xml version="1.0" encoding="utf-8"?>
<!-- Generator: Adobe Illustrator 16.0.0, SVG Export Plug-In . SVG Version: 6.00 Build 0)  -->
<!DOCTYPE svg PUBLIC "-//W3C//DTD SVG 1.1//EN" "http://www.w3.org/Graphics/SVG/1.1/DTD/svg11.dtd">
<svg version="1.1" id="Layer_1" xmlns="http://www.w3.org/2000/svg" xmlns:xlink="http://www.w3.org/1999/xlink" x="0px" y="0px"
	 width="260.505px" height="219.67px" viewBox="0 0 260.505 219.67" enable-background="new 0 0 260.505 219.67"
	 xml:space="preserve">
<path fill="#590375" d="M208.317,182.719l-27.066,27.067c-1.892,1.891-5.442,1.403-7.932-1.086l-11.269-11.269
	c-2.491-2.49-2.977-6.041-1.085-7.932l27.688-27.688l1.271-1.324l-28.959-29.012c-1.89-1.89-1.404-5.44,1.086-7.932l11.269-11.269
	c2.489-2.489,6.041-2.976,7.931-1.085l28.962,28.965l1.108-1.012l27.952-27.953c1.892-1.89,5.442-1.404,7.933,1.085l11.269,11.27
	c2.489,2.49,2.976,6.041,1.085,7.931l-28.978,28.978l1.655,1.724l27.322,27.321c1.891,1.892,1.404,5.442-1.085,7.932l-11.269,11.27
	c-2.49,2.49-6.041,2.976-7.932,1.085l-28.933-28.933L208.317,182.719z"/>
<path fill="#3E0154" d="M260.71,58.846c0,28.273-22.92,51.194-51.193,51.194s-51.193-22.92-51.193-51.194
	s22.92-51.193,51.193-51.193S260.71,30.573,260.71,58.846z M209.517,32.229c-14.7,0-26.617,11.917-26.617,26.616
	c0,14.701,11.917,26.617,26.617,26.617s26.616-11.917,26.616-26.617C236.133,44.146,224.217,32.229,209.517,32.229z"/>
<path d="M154.177,103.744c0.505,0.322,1.006,0.648,1.502,0.979c19.476,12.979,31.932,32.849,31.932,55.122
	c0,39.103-45.064,59.824-85.751,59.824H86.359H5.839c-3.225,0-5.839-2.614-5.839-5.839V5.839C0,2.614,2.614,0,5.839,0h80.52h15.501
	c44.94,0,81.373,26.302,81.373,58.749c0,17.091-10.108,32.477-26.245,43.214L154.177,103.744z M72.302,70.326
	c11.555,0,36.006,3.892,36.006-11.678c0-14.596-24.451-11.677-36.006-11.677V70.326z M72.302,166.482
	c15.299,0,47.672,5.154,47.672-15.461c0-19.327-32.374-15.462-47.672-15.462V166.482z"/>
</svg>
