<?xml version="1.0" encoding="utf-8"?>
<!-- Generator: Adobe Illustrator 16.0.0, SVG Export Plug-In . SVG Version: 6.00 Build 0)  -->
<!DOCTYPE svg PUBLIC "-//W3C//DTD SVG 1.1//EN" "http://www.w3.org/Graphics/SVG/1.1/DTD/svg11.dtd">
<svg version="1.1" id="Layer_1" xmlns="http://www.w3.org/2000/svg" xmlns:xlink="http://www.w3.org/1999/xlink" x="0px" y="0px"
	 width="248.987px" height="248.987px" viewBox="0 0 248.987 248.987" enable-background="new 0 0 248.987 248.987"
	 xml:space="preserve">
<path fill="#3E0154" d="M123.715,57.161L123.715,57.161L55.768,81.259l10.328,89.504l57.456,31.801l58.275-32.212l11.392-89.503
	L123.715,57.161 M138.059,133.551l-14.507-29.917l-12.459,29.917H138.059L138.059,133.551z M143.551,146.173h-38.113l-8.524,21.229
	l-15.819,0.327l42.458-94.339l44.014,94.339h-14.672L143.551,146.173L143.551,146.173z M248.987,124.493
	c0,68.756-55.738,124.494-124.494,124.494S0,193.249,0,124.493S55.738,0,124.494,0S248.987,55.737,248.987,124.493z"/>
</svg>
