<?xml version="1.0" encoding="utf-8"?>
<!-- Generator: Adobe Illustrator 16.0.0, SVG Export Plug-In . SVG Version: 6.00 Build 0)  -->
<!DOCTYPE svg PUBLIC "-//W3C//DTD SVG 1.1//EN" "http://www.w3.org/Graphics/SVG/1.1/DTD/svg11.dtd">
<svg version="1.1" id="Layer_1" xmlns="http://www.w3.org/2000/svg" xmlns:xlink="http://www.w3.org/1999/xlink" x="0px" y="0px"
	 width="248.987px" height="248.987px" viewBox="0 0 248.987 248.987" enable-background="new 0 0 248.987 248.987"
	 xml:space="preserve">
<path fill-rule="evenodd" clip-rule="evenodd" fill="#3E0154" d="M123.544,78.489c17.271,0,34.542,0.088,51.812-0.077
	c3.261-0.031,4.391,0.574,4.029,4.095c-1.598,15.561-2.927,31.149-4.375,46.726c-1.51,16.24-3.043,32.479-4.572,48.718
	c-0.201,2.13-0.557,4.252-0.639,6.386c-0.396,10.316-0.537,8.301-9.272,10.719c-11.307,3.13-22.666,6.073-33.976,9.193
	c-2.006,0.553-3.881,0.688-5.888,0.14c-13.116-3.581-26.22-7.21-39.386-10.595c-2.652-0.682-3.748-1.797-3.979-4.487
	c-1.873-21.712-3.821-43.418-5.806-65.12c-1.267-13.846-2.559-27.69-4.005-41.52c-0.336-3.211,0.27-4.315,3.845-4.271
	C88.733,78.605,106.139,78.489,123.544,78.489z M146.141,61.604c-1.004,0-2.026,0.121-3.009-0.023
	c-2.872-0.419-2.879,1.339-2.88,3.402c-0.001,2.177-0.072,3.944,3.04,3.765c4-0.229,8.025-0.122,12.036-0.027
	c1.837,0.043,2.549-0.476,2.628-2.468c0.12-2.974-0.248-5.541-2.91-7.348c-1.292-0.878-2.503-1.874-3.75-2.816
	c0.228-0.329,0.457-0.659,0.686-0.989c1.292,0,2.584,0.005,3.876-0.001c3.44-0.016,1.802-2.643,1.952-4.139
	c0.148-1.473,0.946-3.677-2.122-3.588c-4.277,0.125-8.562,0.089-12.841,0.004c-1.892-0.036-2.516,0.676-2.608,2.569
	c-0.159,3.228,0.156,6.115,3.147,8.062c1.2,0.781,2.354,1.635,3.528,2.455C146.655,60.842,146.398,61.223,146.141,61.604z
	 M127.728,55.103c0.662,0,1.343-0.098,1.985,0.017c3.371,0.601,3.469-1.339,3.565-3.948c0.107-2.946-0.683-4.059-3.767-3.835
	c-3.714,0.269-7.463,0.06-11.196,0.068c-1.202,0.003-2.502-0.154-2.508,1.69c-0.009,3.137-0.685,6.428,2.641,8.582
	c1.388,0.898,2.612,2.049,3.911,3.084c-1.54,0.843-2.343,0.95-3.106,0.823c-2.784-0.463-3.655,0.586-3.545,3.429
	c0.097,2.53,0.351,3.955,3.426,3.743c3.849-0.267,7.729-0.055,11.597-0.075c1.035-0.006,2.393,0.171,2.388-1.368
	c-0.008-2.693,0.952-5.665-1.927-7.691c-1.493-1.053-2.888-2.243-4.327-3.371C127.152,55.868,127.44,55.485,127.728,55.103z
	 M91.235,57.813c0,3.458-1.358,8.083,0.352,10.073c2.028,2.363,6.787,0.54,10.35,0.797c0.798,0.057,1.609-0.054,2.405,0.02
	c2.732,0.252,4.403-0.073,4.363-3.706c-0.038-3.479-1.661-3.636-4.182-3.405c-0.795,0.072-1.615-0.079-2.404,0.028
	c-2.557,0.345-3.711-0.239-3.746-3.297c-0.037-3.245,1.448-3.444,3.86-3.241c1.327,0.112,2.674-0.027,4.009,0.03
	c1.436,0.062,2.123-0.411,2.344-1.983c0.69-4.909,0.106-5.721-4.619-5.729c-0.802-0.002-1.607-0.045-2.406,0.008
	c-3.431,0.227-7.968-1.492-9.978,0.734c-1.716,1.901-0.616,6.345-0.762,9.664C90.958,57.808,91.097,57.811,91.235,57.813z
	 M248.987,124.493c0,68.756-55.738,124.494-124.494,124.494C55.738,248.987,0,193.249,0,124.493S55.738,0,124.493,0
	C193.25,0,248.987,55.737,248.987,124.493z M124.765,101.682c-10.956,0.073-21.912,0.203-32.868,0.179
	c-2.331-0.006-3.505,0.259-2.778,3.036c0.603,2.308,0.961,4.754,0.932,7.132c-0.04,3.198,1.543,3.541,4.217,3.481
	c7.349-0.164,14.703-0.055,22.055-0.054c2.662,0,5.324,0,7.985,0c-7.513,4.134-15.094,7.348-22.722,10.443
	c-10.006,4.06-9.916,4.011-9.024,14.573c0.21,2.494,1.014,3.049,3.348,3.019c8.419-0.106,16.842-0.027,25.263,0.056l16.788,0.002
	c2.375-0.164,3.424,0.457,3.13,3.088c-0.43,3.848-0.786,7.737-0.701,11.6c0.064,2.872-1.271,4.827-3.851,5.39l-11.497,2.073
	c-4.333,0.237-8.215-2.008-12.38-2.35c-3.553-0.292-4.066-1.893-4.129-4.99c-0.148-7.277-0.324-7.273-7.45-7.273
	c-1.471,0-2.953,0.113-4.41-0.026c-2.307-0.222-3.003,0.556-2.704,2.938c0.599,4.769,1.185,9.578,1.172,14.369
	c-0.009,3.703,1.864,4.943,4.916,5.804c8.268,2.328,16.128,4.695,24.371,7.112l0.368,0.108c8.239-3.103,16.801-5.142,25.244-7.563
	c2.495-0.715,3.391-1.969,3.587-4.433c0.964-12.112,2.005-24.22,3.153-36.314c0.241-2.536-0.541-3.187-3.018-3.149
	c-9.174,0.137-18.352,0.054-27.684-0.552c7.459-3.284,14.918-6.568,22.379-9.849c0.119-0.052,0.266-0.032,0.392-0.074
	c8.969-2.945,10.946-6.014,10.535-15.589c-0.104-2.432-1.532-2.035-2.937-2.035c-9.094-0.002-18.188,0.028-27.282,0.025
	C127.699,101.858,126.233,101.743,124.765,101.682"/>
</svg>
