<?xml version="1.0" encoding="utf-8"?>
<!-- Generator: Adobe Illustrator 16.0.0, SVG Export Plug-In . SVG Version: 6.00 Build 0)  -->
<!DOCTYPE svg PUBLIC "-//W3C//DTD SVG 1.1//EN" "http://www.w3.org/Graphics/SVG/1.1/DTD/svg11.dtd">
<svg version="1.1" id="Layer_1" xmlns="http://www.w3.org/2000/svg" xmlns:xlink="http://www.w3.org/1999/xlink" x="0px" y="0px"
	 width="53.223px" height="52.916px" viewBox="0 0 53.223 52.916" enable-background="new 0 0 53.223 52.916" xml:space="preserve">
<path fill="#3A63CC" d="M26.336,27.041c0-2.766,0.012-5.533-0.011-8.301c-0.004-0.471,0.131-0.619,0.592-0.584
	c0.506,0.039,1.021,0.047,1.525-0.002c0.529-0.051,0.609,0.166,0.607,0.639c-0.018,4.582-0.01,9.166-0.01,13.748
	c0,1.047,0,1.047,1.042,1.047c0.931,0,1.859,0.015,2.789-0.008c0.352-0.006,0.537,0.06,0.494,0.465
	c-0.067,0.629,0.268,1.451-0.139,1.836c-0.319,0.306-1.135,0.099-1.729,0.103c-1.526,0.006-3.056-0.017-4.582,0.012
	c-0.458,0.008-0.597-0.113-0.593-0.586C26.348,32.619,26.336,29.83,26.336,27.041z"/>
<path fill="#3A63CC" d="M37.683,27.071c0,2.771-0.016,5.537,0.013,8.308c0.005,0.513-0.146,0.662-0.635,0.611
	c-0.678-0.07-1.585,0.282-1.975-0.146c-0.335-0.372-0.105-1.264-0.106-1.924c-0.003-5.026,0.008-10.055-0.016-15.084
	c-0.003-0.561,0.151-0.744,0.699-0.678c0.651,0.078,1.502-0.277,1.911,0.145c0.376,0.385,0.1,1.223,0.104,1.859
	C37.689,22.465,37.683,24.77,37.683,27.071z"/>
<path fill="#3A63CC" d="M13.416,20.162c-0.001-0.643,0.229-1.506-0.095-1.865c-0.373-0.416-1.254-0.063-1.907-0.139
	c-0.558-0.066-0.692,0.131-0.69,0.68c0.021,5.027,0.012,10.056,0.015,15.082c0.001,0.662-0.229,1.556,0.104,1.927
	c0.386,0.428,1.296,0.071,1.972,0.145c0.504,0.057,0.621-0.119,0.616-0.615c-0.026-2.768-0.014-5.537-0.014-8.305
	C13.417,24.768,13.419,22.465,13.416,20.162z"/>
<path fill="#3A63CC" d="M22.271,26.674c0.37,0.234,0.695,0.459,1.036,0.654c0.685,0.391,0.98,1.004,0.985,1.76
	c0.013,1.815,0.021,3.634-0.003,5.449c-0.012,0.994-0.438,1.43-1.426,1.438c-2.304,0.021-4.607-0.008-6.91,0.019
	c-0.542,0.006-0.407-0.332-0.407-0.613c-0.004-4.141-0.003-8.282-0.003-12.424c0-1.439,0.015-2.879-0.009-4.318
	c-0.005-0.379,0.104-0.484,0.481-0.48c2.259,0.016,4.519-0.002,6.776,0.012c0.979,0.006,1.387,0.443,1.392,1.447
	c0.007,1.529-0.016,3.057,0.009,4.584c0.013,0.852-0.267,1.504-1.047,1.91C22.855,26.264,22.591,26.467,22.271,26.674z
	 M18.219,33.151c-0.012,0.402,0.056,0.605,0.532,0.58c0.771-0.041,1.549-0.03,2.321-0.004c0.399,0.017,0.538-0.094,0.53-0.514
	c-0.025-1.371-0.021-2.742-0.003-4.113c0.005-0.332-0.16-0.483-0.384-0.692c-0.749-0.707-1.652-0.603-2.553-0.611
	c-0.348-0.004-0.457,0.097-0.446,0.447c0.025,0.817,0.009,1.637,0.009,2.455C18.226,31.517,18.243,32.336,18.219,33.151z
	 M18.226,24.027c0,1.701,0,1.701,1.696,1.584c0.573-0.041,1.576-0.826,1.579-1.26c0.01-1.172-0.007-2.344,0.011-3.516
	c0.004-0.324-0.115-0.418-0.425-0.414c-0.816,0.016-1.636,0.016-2.453,0c-0.318-0.006-0.424,0.107-0.414,0.422
	c0.019,0.73,0.006,1.461,0.006,2.189C18.226,23.365,18.226,23.695,18.226,24.027z M6.739,26.674c0.37,0.234,0.695,0.459,1.036,0.654
	c0.685,0.391,0.98,1.004,0.985,1.76c0.013,1.815,0.021,3.634-0.003,5.449c-0.012,0.994-0.438,1.43-1.426,1.438
	c-2.304,0.021-4.607-0.008-6.91,0.019C-0.12,36,0.014,35.662,0.014,35.381C0.01,31.24,0.011,27.099,0.011,22.957
	c0-1.439,0.015-2.879-0.009-4.318c-0.005-0.379,0.104-0.484,0.481-0.48c2.259,0.016,4.519-0.002,6.776,0.012
	c0.979,0.006,1.387,0.443,1.392,1.447c0.007,1.529-0.016,3.057,0.009,4.584c0.013,0.852-0.267,1.504-1.047,1.91
	C7.323,26.264,7.058,26.467,6.739,26.674z M2.686,33.151c-0.012,0.402,0.056,0.605,0.532,0.58c0.771-0.041,1.549-0.03,2.321-0.004
	c0.399,0.017,0.538-0.094,0.53-0.514c-0.025-1.371-0.021-2.742-0.003-4.113c0.005-0.332-0.16-0.483-0.384-0.692
	c-0.749-0.707-1.652-0.603-2.553-0.611c-0.348-0.004-0.457,0.097-0.446,0.447c0.025,0.817,0.009,1.637,0.009,2.455
	C2.694,31.517,2.711,32.336,2.686,33.151z M2.694,24.027c0,1.701,0,1.701,1.696,1.584c0.573-0.041,1.576-0.826,1.579-1.26
	c0.01-1.172-0.007-2.344,0.011-3.516c0.004-0.324-0.115-0.418-0.425-0.414c-0.816,0.016-1.636,0.016-2.453,0
	c-0.318-0.006-0.424,0.107-0.414,0.422c0.019,0.73,0.006,1.461,0.006,2.189C2.694,23.365,2.694,23.695,2.694,24.027z"/>
<path fill="#3A63CC" d="M40.802,35.978c-0.908-0.011-1.304-0.445-1.314-1.439c-0.021-1.816-0.014-3.633-0.003-5.449l0.093-4.887
	c0.021-1.527,0.001-3.055,0.008-4.584c0.004-1.004,0.38-1.441,1.283-1.447h10.728c0.979,0.006,1.387,0.443,1.392,1.447
	c0.007,1.529-0.015,3.057,0.008,4.584l0.102,4.887c0.012,1.816,0.021,3.633-0.004,5.449c-0.012,0.994-0.439,1.43-1.427,1.439H40.802
	z M48.992,33.485c1.543,0,2.177-0.071,2.187-0.809c0.017-1.344,0.001-2.947-0.009-4.293l-0.073-3.619
	c-0.019-1.131-0.001-2.262-0.007-3.395c-0.004-0.744-0.306-1.068-1.03-1.07h-7.15c-0.669,0.002-0.947,0.326-0.95,1.07
	c-0.005,1.133,0.01,2.264-0.006,3.395l-0.068,3.619c-0.008,1.346-0.014,2.691,0.003,4.037c0.009,0.734,0.3,1.059,0.975,1.064H48.992
	L48.992,33.485z M42.703,22.234c2.528,0,5.06,0,7.588,0c0-0.084,0-0.172,0-0.256c-2.528,0-5.06,0-7.588,0
	C42.703,22.063,42.703,22.15,42.703,22.234z M42.702,23.232c2.531,0,5.062,0,7.591,0c-0.001-0.08-0.003-0.16-0.004-0.242
	c-2.529,0-5.059,0-7.589,0C42.7,23.072,42.702,23.152,42.702,23.232z M50.291,25.408c-2.531,0-5.062,0-7.592,0
	c0.002,0.068,0.005,0.135,0.007,0.201c2.529,0,5.061,0,7.589,0C50.294,25.543,50.292,25.477,50.291,25.408z M42.701,26.584
	c2.532,0,5.064,0,7.595,0c-0.002-0.068-0.004-0.137-0.007-0.203c-2.53,0-5.062,0-7.592,0C42.699,26.447,42.7,26.516,42.701,26.584z
	 M42.703,28.924c2.53,0,5.062,0,7.591,0c-0.002-0.071-0.004-0.146-0.006-0.217c-2.53,0-5.06,0-7.588,0
	C42.7,28.778,42.702,28.853,42.703,28.924z M50.291,29.797c-2.529,0-5.06,0-7.591,0c0.002,0.08,0.004,0.16,0.005,0.24
	c2.529,0,5.06,0,7.588,0C50.293,29.957,50.292,29.877,50.291,29.797z M42.744,24.266c2.034,0,4.068,0,6.103,0
	c-0.003-0.078-0.005-0.156-0.007-0.23c-2.032,0-4.065,0-6.099,0C42.742,24.109,42.743,24.188,42.744,24.266z M46.975,27.438
	c-1.411,0-2.823,0-4.235,0c0,0.086,0.001,0.172,0.002,0.263c1.411,0,2.822,0,4.234,0C46.976,27.61,46.975,27.524,46.975,27.438z
	 M47.844,34.571c-1.036,0-2.072,0-3.108,0c0,0.089,0.001,0.175,0.001,0.263c1.036,0,2.072,0,3.107,0
	C47.844,34.746,47.844,34.66,47.844,34.571z M43.555,31.619c-0.478-0.24-0.833-0.265-1.186,0.094
	C42.742,31.974,43.115,32.129,43.555,31.619z M50.989,31.567c-0.461-0.153-0.823-0.237-1.164,0.164
	C50.202,31.931,50.595,32.187,50.989,31.567z"/>
</svg>
