<?xml version="1.0" encoding="utf-8"?>
<!-- Generator: Adobe Illustrator 16.0.0, SVG Export Plug-In . SVG Version: 6.00 Build 0)  -->
<!DOCTYPE svg PUBLIC "-//W3C//DTD SVG 1.1//EN" "http://www.w3.org/Graphics/SVG/1.1/DTD/svg11.dtd">
<svg version="1.1" id="Layer_1" xmlns="http://www.w3.org/2000/svg" xmlns:xlink="http://www.w3.org/1999/xlink" x="0px" y="0px"
	 width="248.987px" height="248.987px" viewBox="0 0 248.987 248.987" enable-background="new 0 0 248.987 248.987"
	 xml:space="preserve">
<path fill-rule="evenodd" clip-rule="evenodd" fill="#3E0154" d="M123.076,203.615c-12.902-4.425-26.202-7.467-39.315-11.152
	c-3.825-1.076-5.464-2.301-5.824-6.809c-2.661-33.396-5.794-66.75-8.776-100.119c-0.802-8.971-0.796-8.971,8.307-8.971
	c32.73,0,65.46,0.064,98.188-0.09c3.755-0.018,4.778,0.888,4.429,4.654c-3.096,33.356-6.027,66.729-9.008,100.097
	c-0.859,9.613-0.85,9.646-10.203,12.25c-11.337,3.154-22.692,6.239-34.033,9.378c-0.474,0.132-0.882,0.503-1.32,0.762
	C124.706,203.615,123.891,203.615,123.076,203.615z M124.285,99.992c0,0.026,0,0.051,0,0.076c-10.722,0-21.444-0.021-32.166,0.028
	c-1.262,0.008-3.176-0.779-2.917,1.941c1.168,12.28,2.357,24.561,3.282,36.86c0.237,3.161,1.572,3.556,4.304,3.534
	c13.707-0.108,27.415,0.041,41.122-0.041c2.535-0.013,3.661,0.447,3.275,3.312c-0.559,4.159-0.79,8.367-1.026,12.562
	c-0.09,1.621-0.826,2.324-2.272,2.885c-9.047,3.512-18.047,3.88-27.138,0.109c-1.586-0.657-2.288-1.338-2.435-3.139
	c-0.72-8.825-0.786-8.821-9.522-8.816c-0.679,0-1.372,0.088-2.035-0.016c-2.676-0.418-3.257,0.873-2.995,3.265
	c0.62,5.659,1.158,11.329,1.593,17.005c0.115,1.51,0.757,1.939,2.102,2.402c5.409,1.865,10.975,3.369,16.443,4.834
	c3.894,1.042,7.919,3.477,12.375,2.197c8.188-2.35,16.375-4.7,24.594-6.938c1.495-0.408,2.283-0.853,2.426-2.587
	c1.001-12.156,1.942-24.326,3.313-36.443c0.484-4.278-1.035-4.82-4.75-4.74c-11.803,0.257-23.613,0.217-35.418,0.146
	c-3.468-0.021-7.717,1.463-10.198-0.75c-2.204-1.967-0.958-6.188-1.364-9.4c-0.034-0.269-0.017-0.555-0.102-0.806
	c-1.047-3.082,0.409-3.565,3.169-3.536c13.163,0.137,26.329,0.141,39.494,0.086c3.493-0.015,7.962,1.495,10.219-0.658
	c2.238-2.138,0.894-6.729,1.556-10.153c0.598-3.097-0.751-3.274-3.17-3.256C145.458,100.041,134.871,99.992,124.285,99.992z
	 M142.431,64.425c-0.284,3.031,1.767,2.398,3.396,2.35c1.549-0.045,3.608,0.873,3.494-2.264c-0.201-5.547-0.038-11.108-0.073-16.663
	c-0.006-0.964,0.48-2.337-1.34-2.314c-3.12,0.034-6.521-0.849-8.005,3.385c-0.479,1.368-1.256,2.867-2.755,3.813
	c-1.231-2.041-2.294-4.088-3.626-5.942c-1.782-2.482-4.492-0.859-6.76-1.218c-1.479-0.234-1.272,1.022-1.273,1.932
	c-0.011,5.824,0.029,11.651-0.03,17.477c-0.015,1.428,0.526,1.741,1.88,1.864c4.71,0.433,4.857,0.361,4.86-4.555
	c0.001-1.664,0-3.33,0-6.049c2.125,3.092,3.583,5.213,5.167,7.517c1.636-2.419,3.037-4.492,5.107-7.555
	C142.474,59.837,142.645,62.148,142.431,64.425z M99.491,48.857c0.207-2.515-0.408-3.552-3.221-3.423
	c-2.605,0.119-4.633,0.123-3.929,3.571c0.693,3.398-1.048,3.858-4.003,3.87c-4.377,0.018-2.594-3.115-2.546-4.847
	c0.079-2.868-1.53-2.61-3.313-2.492c-1.682,0.111-3.872-0.873-3.713,2.473c0.238,4.995,0.142,10.013,0.028,15.016
	c-0.054,2.378-0.116,3.972,3.228,3.913c3.037-0.054,4.208-0.789,3.659-3.811c-0.493-2.721,0.464-3.715,3.423-3.699
	c2.822,0.015,3.67,1.004,3.226,3.514c-0.579,3.277,0.874,3.896,3.943,3.99c3.346,0.101,3.341-1.5,3.205-3.875
	c-0.13-2.291-0.028-4.598-0.028-6.898C99.449,53.725,99.294,51.276,99.491,48.857z M104.826,45.486
	c-2.373-0.181-2.458,1.263-2.105,2.76c0.355,1.501-1.559,4.54,1.788,4.214c4.37-0.422,4.966,1.581,4.565,5.116
	c-0.226,2.007,0.119,4.076-0.082,6.089c-0.241,2.411,0.392,3.287,3.034,3.236c2.719-0.054,4.36-0.235,3.863-3.635
	c-0.349-2.387,0.081-4.879-0.108-7.303c-0.197-2.525,0.43-3.896,3.264-3.399c2.279,0.4,3.255-0.214,3.345-2.925
	c0.109-3.326-0.689-4.682-4.16-4.159c-1.855,0.277-3.787,0.05-5.684,0.05C109.972,45.53,107.385,45.68,104.826,45.486z
	 M166.792,66.838c2.651,0.31,3.405-0.612,3.425-3.313c0.021-2.86-0.788-3.94-3.627-3.54c-1.197,0.169-2.451-0.086-3.656,0.052
	c-2.25,0.262-3.191-0.486-3.046-2.889c0.186-3.108-0.113-6.248,0.089-9.354c0.205-3.157-1.984-2.179-3.511-2.234
	c-1.622-0.06-3.61-0.707-3.408,2.341c0.233,3.511,0.054,7.049,0.054,10.576c0,8.325,0,8.325,8.396,8.325
	C163.271,66.801,165.052,66.637,166.792,66.838z M248.987,124.493c0,68.756-55.738,124.494-124.494,124.494S0,193.249,0,124.493
	S55.738,0,124.494,0S248.987,55.737,248.987,124.493z"/>
</svg>
