<?xml version="1.0" encoding="utf-8"?>
<!-- Generator: Adobe Illustrator 16.0.0, SVG Export Plug-In . SVG Version: 6.00 Build 0)  -->
<!DOCTYPE svg PUBLIC "-//W3C//DTD SVG 1.1//EN" "http://www.w3.org/Graphics/SVG/1.1/DTD/svg11.dtd">
<svg version="1.1" id="Layer_1" xmlns="http://www.w3.org/2000/svg" xmlns:xlink="http://www.w3.org/1999/xlink" x="0px" y="0px"
	 width="248.987px" height="248.987px" viewBox="0 0 248.987 248.987" enable-background="new 0 0 248.987 248.987"
	 xml:space="preserve">
<path fill="#3E0154" d="M248.987,124.493c0,68.756-55.738,124.494-124.494,124.494S0,193.249,0,124.493S55.738,0,124.494,0
	S248.987,55.737,248.987,124.493z M61.739,89.983c-12.642,18.169-11.067,41.807-1.411,61.113c0.229,0.464,0.471,0.918,0.708,1.374
	c0.151,0.288,0.293,0.583,0.45,0.869c0.089,0.17,0.189,0.337,0.282,0.501c0.166,0.309,0.333,0.6,0.504,0.901
	c0.3,0.527,0.608,1.054,0.921,1.579c0.174,0.289,0.346,0.576,0.526,0.865c0.348,0.563,0.705,1.121,1.07,1.674
	c0.151,0.237,0.3,0.474,0.456,0.703c0.503,0.75,1.018,1.501,1.548,2.237c0.014,0.018,0.03,0.039,0.045,0.058
	c0.084,0.119,0.177,0.234,0.262,0.354c0.459,0.633,0.933,1.257,1.411,1.877c0.176,0.227,0.356,0.45,0.533,0.676
	c0.427,0.54,0.862,1.073,1.304,1.605c0.167,0.199,0.332,0.397,0.499,0.594c0.593,0.699,1.198,1.395,1.818,2.078
	c0.011,0.012,0.025,0.025,0.037,0.039c0.025,0.027,0.046,0.046,0.069,0.073c0.605,0.66,1.223,1.307,1.849,1.951
	c0.194,0.198,0.394,0.398,0.592,0.597c0.486,0.487,0.979,0.967,1.476,1.447c0.202,0.19,0.402,0.387,0.603,0.572
	c0.665,0.626,1.337,1.241,2.022,1.84c0.012,0.013,0.021,0.021,0.032,0.025c0.115,0.104,0.237,0.203,0.351,0.299
	c0.604,0.524,1.219,1.044,1.837,1.554c0.253,0.205,0.508,0.405,0.761,0.606c0.505,0.404,1.017,0.805,1.531,1.195
	c0.272,0.209,0.545,0.417,0.819,0.625c0.567,0.415,1.14,0.828,1.718,1.23c0.211,0.152,0.415,0.299,0.626,0.444
	c0.058,0.042,0.111,0.085,0.171,0.124c0.548,0.375,1.108,0.741,1.668,1.103c0.24,0.159,0.479,0.326,0.722,0.481
	c0.859,0.542,1.731,1.08,2.612,1.601c0.24,0.137,0.48,0.271,0.722,0.406c0.647,0.374,1.3,0.741,1.96,1.101
	c0.356,0.192,0.725,0.374,1.083,0.557c0.468,0.247,0.931,0.493,1.404,0.728c0.107,0.056,0.219,0.108,0.326,0.159
	c0.188,0.091,0.38,0.182,0.572,0.278c0.735,0.351,1.476,0.694,2.223,1.028c0.16,0.07,0.313,0.141,0.472,0.209
	c0.856,0.375,1.72,0.736,2.594,1.08c0.209,0.083,0.421,0.166,0.632,0.25c0.808,0.309,1.625,0.617,2.446,0.905
	c0.104,0.037,0.205,0.07,0.307,0.105c0.902,0.315,1.813,0.607,2.73,0.894c0.218,0.064,0.438,0.135,0.658,0.199
	c0.934,0.279,1.855,0.615,2.818,0.794c61.135,11.148,78.894-36.739,78.894-36.739c-14.914,19.43-41.388,24.557-66.471,18.85
	c-0.951-0.214-1.873-0.51-2.8-0.785c-0.236-0.069-0.466-0.14-0.699-0.212c-0.905-0.278-1.803-0.568-2.696-0.877
	c-0.122-0.042-0.246-0.088-0.37-0.133c-0.799-0.28-1.59-0.578-2.376-0.881c-0.223-0.09-0.445-0.173-0.667-0.263
	c-0.863-0.341-1.721-0.695-2.566-1.068c-0.175-0.072-0.342-0.148-0.512-0.226c-0.728-0.329-1.448-0.661-2.167-1.005
	c-0.206-0.102-0.414-0.2-0.625-0.301c-0.563-0.274-1.12-0.566-1.674-0.853c-0.372-0.194-0.75-0.382-1.117-0.583
	c-0.678-0.363-1.345-0.742-2.006-1.127c-0.226-0.128-0.452-0.247-0.679-0.377c-0.882-0.52-1.751-1.058-2.614-1.604
	c-0.238-0.15-0.47-0.312-0.705-0.468c-0.625-0.403-1.248-0.813-1.859-1.237c-0.203-0.136-0.4-0.283-0.598-0.42
	c-0.593-0.418-1.178-0.843-1.759-1.271c-0.263-0.193-0.522-0.396-0.779-0.59c-0.532-0.408-1.062-0.817-1.585-1.24
	c-0.237-0.187-0.475-0.378-0.708-0.567c-0.667-0.548-1.325-1.097-1.976-1.662c-0.068-0.062-0.142-0.12-0.216-0.183
	c-0.703-0.618-1.395-1.252-2.077-1.89c-0.198-0.189-0.391-0.372-0.584-0.564c-0.506-0.479-1.004-0.965-1.493-1.461
	c-0.195-0.194-0.393-0.39-0.585-0.584c-0.622-0.639-1.232-1.282-1.831-1.937c-0.03-0.033-0.062-0.062-0.091-0.098
	c-0.633-0.691-1.251-1.398-1.857-2.114c-0.165-0.194-0.324-0.385-0.487-0.578c-0.451-0.542-0.898-1.095-1.336-1.652
	c-0.166-0.198-0.329-0.405-0.492-0.608c-0.525-0.683-1.04-1.363-1.544-2.057c-13.927-18.994-18.93-45.193-7.799-66.711
	 M100.979,74.676c-9.142,13.157-8.646,30.767-1.514,44.681c1.196,2.332,2.54,4.596,4.044,6.749c1.369,1.964,2.887,4.299,4.704,5.875
	c0.66,0.727,1.348,1.435,2.052,2.13c0.178,0.184,0.359,0.357,0.542,0.536c0.682,0.661,1.377,1.312,2.095,1.944
	c0.029,0.025,0.056,0.053,0.086,0.073c0.007,0.011,0.016,0.012,0.019,0.021c0.795,0.696,1.615,1.365,2.449,2.025
	c0.185,0.139,0.368,0.288,0.554,0.432c0.835,0.642,1.687,1.272,2.561,1.871c0.025,0.019,0.047,0.038,0.074,0.059
	c0.385,0.265,0.778,0.512,1.168,0.768c0.188,0.123,0.366,0.252,0.555,0.367c0.623,0.397,1.255,0.788,1.897,1.162
	c0.091,0.057,0.181,0.103,0.269,0.153c0.553,0.32,1.115,0.635,1.678,0.938c0.196,0.112,0.396,0.209,0.597,0.312
	c0.388,0.203,0.776,0.41,1.173,0.609c0.057,0.027,0.119,0.055,0.176,0.079c0.805,0.396,1.619,0.778,2.449,1.139
	c0.176,0.078,0.358,0.147,0.541,0.224c0.662,0.281,1.332,0.556,2.004,0.813c0.286,0.108,0.574,0.21,0.86,0.317
	c0.61,0.225,1.224,0.433,1.842,0.641c0.28,0.088,0.554,0.18,0.833,0.266c0.878,0.271,1.748,0.617,2.665,0.771
	c47.201,7.82,58.099-28.522,58.099-28.522c-9.824,14.145-28.847,20.898-49.147,15.628c-0.901-0.237-1.789-0.494-2.672-0.773
	c-0.271-0.083-0.537-0.171-0.804-0.26c-0.628-0.202-1.252-0.419-1.87-0.645c-0.283-0.102-0.566-0.206-0.844-0.313
	c-0.678-0.261-1.349-0.531-2.013-0.813c-0.181-0.078-0.365-0.147-0.542-0.23c-0.833-0.361-1.654-0.744-2.463-1.142
	c-0.416-0.206-0.824-0.419-1.234-0.629c-0.236-0.123-0.475-0.246-0.712-0.368c-0.526-0.287-1.048-0.58-1.563-0.882
	c-0.122-0.07-0.25-0.137-0.373-0.211c-0.64-0.374-1.269-0.759-1.893-1.154c-0.192-0.124-0.377-0.258-0.569-0.383
	c-0.413-0.267-0.823-0.537-1.226-0.811c-0.87-0.598-1.717-1.229-2.551-1.867c-0.192-0.151-0.386-0.299-0.575-0.449
	c-8.885-7.016-15.928-16.605-19.276-27.476c-3.51-11.276-2.754-23.931,3.327-34.2 M133.983,63.24
	c-5.39,7.93-5.919,17.779-2.179,26.54c3.943,9.298,12.023,16.593,21.457,20.049c0.388,0.146,0.776,0.275,1.171,0.409
	c0.171,0.053,0.342,0.11,0.516,0.162c0.556,0.173,1.107,0.378,1.682,0.485c26.063,5.036,33.132-13.375,35.013-16.085
	c-6.192,8.915-16.598,11.058-29.367,7.959c-1.009-0.247-2.119-0.61-3.09-0.956c-1.246-0.442-2.474-0.95-3.668-1.522
	c-2.267-1.09-4.428-2.413-6.433-3.925c-11.425-8.67-18.524-25.21-11.068-38.679"/>
</svg>
