<?xml version="1.0" encoding="utf-8"?>
<!-- Generator: Adobe Illustrator 16.0.0, SVG Export Plug-In . SVG Version: 6.00 Build 0)  -->
<!DOCTYPE svg PUBLIC "-//W3C//DTD SVG 1.1//EN" "http://www.w3.org/Graphics/SVG/1.1/DTD/svg11.dtd">
<svg version="1.1" id="Layer_1" xmlns="http://www.w3.org/2000/svg" xmlns:xlink="http://www.w3.org/1999/xlink" x="0px" y="0px"
	 width="248.988px" height="248.987px" viewBox="0 0 248.988 248.987" enable-background="new 0 0 248.988 248.987"
	 xml:space="preserve">
<path fill="#3E0154" d="M205.015,170.162c-1.342-8.321-6.771-15.329-22.845-21.83c-5.577-2.564-11.81-4.414-13.659-8.648
	c-0.656-2.476-0.746-3.848-0.328-5.339c1.193-4.83,6.979-6.352,11.542-4.95c2.952,0.983,5.756,3.251,7.426,6.889
	c7.873-5.1,7.873-5.069,13.361-8.559c-1.998-3.131-3.102-4.563-4.414-5.905c-4.742-5.278-11.183-8.022-21.502-7.813
	c-1.789,0.238-3.578,0.477-5.368,0.685c-5.159,1.313-10.05,3.997-12.942,7.635c-8.649,9.812-6.174,26.96,4.324,34.028
	c10.348,7.783,25.558,9.543,27.526,16.819c1.879,8.888-6.531,11.78-14.912,10.767c-6.173-1.282-9.603-4.414-13.331-10.14
	c-6.829,3.967-6.829,3.967-13.868,7.992c1.671,3.639,3.43,5.279,6.203,8.44c13.212,13.42,46.315,12.764,52.25-7.546
	C204.716,182.002,206.297,177.35,205.015,170.162z M136.661,115.079h-17.059c0,14.733-0.06,29.376-0.06,44.138
	c0,9.396,0.477,17.983-1.044,20.638c-2.505,5.189-8.977,4.533-11.929,3.549c-3.012-1.461-4.533-3.579-6.293-6.531
	c-0.478-0.864-0.865-1.521-0.984-1.55c-4.623,2.832-9.245,5.666-13.868,8.499c2.296,4.742,5.696,8.857,10.05,11.511
	c6.501,3.907,15.239,5.101,24.395,3.013c5.965-1.729,11.094-5.339,13.778-10.795c3.876-7.158,3.042-15.837,3.012-25.44
	C136.75,146.423,136.661,130.767,136.661,115.079z M248.987,124.493c0,68.756-55.738,124.494-124.494,124.494
	C55.737,248.987,0,193.249,0,124.493S55.737,0,124.494,0C193.25,0,248.987,55.737,248.987,124.493z"/>
</svg>
