<?xml version="1.0" encoding="utf-8"?>
<!-- Generator: Adobe Illustrator 16.0.0, SVG Export Plug-In . SVG Version: 6.00 Build 0)  -->
<!DOCTYPE svg PUBLIC "-//W3C//DTD SVG 1.1//EN" "http://www.w3.org/Graphics/SVG/1.1/DTD/svg11.dtd">
<svg version="1.1" id="Layer_1" xmlns="http://www.w3.org/2000/svg" xmlns:xlink="http://www.w3.org/1999/xlink" x="0px" y="0px"
	 width="248.987px" height="248.987px" viewBox="0 0 248.987 248.987" enable-background="new 0 0 248.987 248.987"
	 xml:space="preserve">
<path fill-rule="evenodd" clip-rule="evenodd" fill="#3E0154" d="M174.407,105.004c-0.572,10.951-2.729,21.528-7.42,31.509
	c-7,12.533-19.215,24.071-28.942,29.696c0,0-3.948,2.296-6.112,3.029c-9.298,3.154-18.884,4.395-28.643,3.618
	c-3.417-0.271-5.257,0.851-6.557,3.856c-1.266,2.925-2.446,5.863-3.114,8.975c-0.835,3.884-3.35,6.047-6.972,7.198
	c-4.07,1.294-5.509,0.274-4.652-3.831c0.969-4.639,2.743-9.484,4.822-13.985c0.117-0.208,0.216-0.428,0.304-0.651
	c0.45-0.953,0.908-1.896,1.38-2.808c2.878-5.46,5.492-11.175,10.729-14.854c10.051-7.062,18.643-15.621,26.07-25.323
	c7.265-9.487,13.248-19.744,17.24-31.08c-0.688,0.296-1.099,0.761-1.378,1.296c-9.72,18.582-23.252,33.979-39.494,47.067
	c-6.451,5.198-13.315,9.935-17.157,17.645c-0.787,0.241-1.505,0.787-2.165,0.215c-8.637-16.384-10.027-33.39-4.38-51
	c9.824-22.753,29.189-34.428,50.758-43.367c8.779-3.638,17.675-6.896,24.652-13.703c6.024-4.238,6.021-4.234,9.664,2.377
	c0.333,0.603,0.729,1.169,1.096,1.752C170.421,76.064,173.589,90.25,174.407,105.004z M124.494,0C55.738,0,0,55.737,0,124.493
	s55.738,124.494,124.494,124.494s124.494-55.738,124.494-124.494S193.25,0,124.494,0z"/>
</svg>
