<?xml version="1.0" encoding="utf-8"?>
<!-- Generator: Adobe Illustrator 16.0.0, SVG Export Plug-In . SVG Version: 6.00 Build 0)  -->
<!DOCTYPE svg PUBLIC "-//W3C//DTD SVG 1.1//EN" "http://www.w3.org/Graphics/SVG/1.1/DTD/svg11.dtd">
<svg version="1.1" id="Layer_1" xmlns="http://www.w3.org/2000/svg" xmlns:xlink="http://www.w3.org/1999/xlink" x="0px" y="0px"
	 width="248.987px" height="248.987px" viewBox="0 0 248.987 248.987" enable-background="new 0 0 248.987 248.987"
	 xml:space="preserve">
<path fill="#3E0154" d="M248.987,124.493c0,68.756-55.738,124.494-124.494,124.494S0,193.249,0,124.493S55.738,0,124.494,0
	S248.987,55.737,248.987,124.493z M152.137,159.398c2.595,0.364,4.09-0.192,4.284-3.313c0.189-3.005,1.358-5.939,1.66-8.948
	c0.229-2.285,1.287-2.584,3.203-2.537c3.87,0.095,7.748,0.067,11.618-0.044c10.661-0.306,19.209-6.979,22.212-17.254
	c4.084-13.976-2.535-22.924-17.06-23.012c-6.925-0.042-13.854,0.102-20.775-0.07c-2.271-0.056-2.992,0.739-3.39,2.837
	c-2.946,15.51-5.993,31.002-9.034,46.495c-1.145,5.835-1.176,5.829,4.82,5.829C150.496,159.381,151.332,159.285,152.137,159.398z
	 M166.575,136.053c11.761,0.617,16.775-4.654,17.095-15.846c0.114-4.005-1.413-5.723-5.25-6.741
	c-4.054-1.077-8.185-0.424-12.277-0.627c-1.575-0.078-1.508,1.015-1.706,2.07c-0.931,4.95-1.896,9.895-2.888,14.833
	C160.28,136.064,160.264,136.061,166.575,136.053z M62.593,104.251c-1.752-0.043-2.265,0.512-2.605,2.317
	c-2.856,15.171-5.871,30.313-8.886,45.454c-1.468,7.368-1.515,7.358,6.121,7.358c0.705,0,1.425-0.099,2.11,0.019
	c2.042,0.35,2.63-0.78,2.907-2.517c0.496-3.119,1.166-6.21,1.673-9.326c0.34-2.087,1.091-3.168,3.566-2.996
	c3.736,0.259,7.51,0.109,11.264-0.008c11.28-0.352,20.344-7.865,22.828-18.837c2.912-12.863-3.638-21.232-16.791-21.417
	c-3.404-0.048-6.809-0.008-10.213-0.013C70.576,104.282,66.582,104.35,62.593,104.251z M72.386,136.053
	c11.719,0.591,16.85-4.305,17.309-16.034c0.138-3.526-1.717-5.642-5.151-6.534c-3.708-0.963-7.483-0.35-11.202-0.701
	c-2.208-0.208-2.847,0.772-3.188,2.602c-0.923,4.945-1.94,9.872-2.873,14.815C66.178,136.054,66.199,136.058,72.386,136.053z
	 M113.814,89.497c-1.598-0.065-2.129,0.372-2.429,2.026c-1.372,7.604-2.976,15.165-4.456,22.75
	c-1.96,10.042-3.882,20.091-5.863,30.36c3.398,0,6.455-0.152,9.487,0.054c2.024,0.138,2.502-0.726,2.821-2.48
	c1.197-6.566,2.621-13.091,3.836-19.655c1.938-10.473,2.432-10.864,13.197-9.434c4.582,0.61,5.844,2.314,4.974,6.925
	c-0.955,5.063-2.068,10.095-2.969,15.166c-0.543,3.058-2.818,7.194-1.141,8.87c1.617,1.614,5.983,0.413,9.136,0.584
	c1.534,0.083,2.262-0.276,2.563-1.95c1.527-8.527,3.466-16.989,4.729-25.551c1.097-7.451-1.799-10.786-9.18-12.278
	c-5.819-1.177-11.71-0.131-17.713-0.792c0.92-4.791,1.82-9.476,2.796-14.558C120.146,89.534,116.975,89.625,113.814,89.497z"/>
</svg>
