<?xml version="1.0" encoding="utf-8"?>
<!-- Generator: Adobe Illustrator 16.0.0, SVG Export Plug-In . SVG Version: 6.00 Build 0)  -->
<!DOCTYPE svg PUBLIC "-//W3C//DTD SVG 1.1//EN" "http://www.w3.org/Graphics/SVG/1.1/DTD/svg11.dtd">
<svg version="1.1" id="Layer_1" xmlns="http://www.w3.org/2000/svg" xmlns:xlink="http://www.w3.org/1999/xlink" x="0px" y="0px"
	 width="248.987px" height="248.987px" viewBox="0 0 248.987 248.987" enable-background="new 0 0 248.987 248.987"
	 xml:space="preserve">
<g>
	<path fill="#3E0154" d="M57.989,120.206l0.92-0.822c6.068-5.731,12.942-11.434,20.52-16.949l2.446-1.845l0.568-5.373
		c1.046-8.7,2.535-16.934,4.408-24.534l0.272-1.101l-0.887-0.168c-22.921-5.939-41.044-4.766-47.003,5.049
		c-6.083,10.017,1.571,26.993,18.03,44.888L57.989,120.206z"/>
	<path fill="#3E0154" d="M102.372,87.591c3.889-2.229,7.777-4.316,11.647-6.279l2.036-1.16l-2.383-1.138
		c-6.68-2.901-13.218-5.349-19.485-7.321l-1.308-0.379l-0.319,1.167c-1.673,7.001-3.02,14.584-3.991,22.576l-0.155,1.149
		l0.861-0.581C93.477,92.871,97.846,90.186,102.372,87.591z"/>
	<path fill="#3E0154" d="M81.25,109.094l-0.501,0.381c-6.299,4.713-12.068,9.551-17.235,14.391l-0.944,0.892l0.827,0.887
		l0.333,0.347c5.167,4.84,10.721,9.359,17.02,14.072l0.501,0.381l-0.094-0.702l-0.46-14.124c-0.015-5.383,0.155-10.657,0.46-15.821
		L81.25,109.094z"/>
	<path fill="#3E0154" d="M119.237,74.412l4.775,1.997l1.679-0.656c9.041-4.011,17.888-7.266,26.303-9.723l0.739-0.234l-0.199-0.752
		c-6.877-23.178-17.464-38.425-29.103-38.397C112.118,26.675,101.938,41,95.222,63.015l-0.557,2.136l1.398,0.401
		C103.508,67.872,111.284,70.825,119.237,74.412z"/>
	<path fill="#3E0154" d="M165.263,96.769l0.502,5l1.264,0.955c8.013,6.027,15.245,12.259,21.563,18.505l0.288,0.29l0.333-0.326
		c17.302-17.969,25.634-35.354,19.738-45.638c-5.822-10.156-24.288-11.465-47.813-5.562l-0.698,0.152l0.193,0.754
		C162.624,78.887,164.186,87.578,165.263,96.769z"/>
	<path fill="#3E0154" d="M82.443,153.77l-0.568-5.373l-2.446-1.845c-7.578-5.516-14.452-11.218-20.52-16.949l-0.92-0.822
		l-0.725,0.855c-16.459,17.895-24.112,34.871-18.03,44.888c5.958,9.814,24.082,10.988,47.003,5.049l0.887-0.168l-0.272-1.101
		C84.978,170.703,83.489,162.47,82.443,153.77z"/>
	<path fill="#3E0154" d="M131.514,80.224l0.747,0.398c4.675,2.452,9.379,5.106,14.077,7.959c4.182,2.539,8.216,5.157,12.111,7.83
		l0.457,0.35l-0.089-0.617c-1.037-8.425-2.485-16.42-4.296-23.77l-0.216-0.536l-0.518,0.161c-6.902,2.081-14.144,4.725-21.554,7.888
		L131.514,80.224z"/>
	<path fill="#3E0154" d="M166.656,140.534l-0.015,0.153l0.366-0.253c6.271-4.887,12.006-9.874,17.121-14.838l0.228-0.196
		l-0.228-0.214c-5.115-4.964-10.623-9.522-16.893-14.409l-0.626-0.433l0.047,0.762c0.268,4.654,0.414,9.404,0.426,14.231v0.965
		C167.069,131.13,166.923,135.88,166.656,140.534z"/>
	<path fill="#3E0154" d="M124.493,0C55.738,0,0,55.737,0,124.493s55.738,124.494,124.493,124.494
		c68.756,0,124.494-55.738,124.494-124.494S193.25,0,124.493,0z M159.631,184.998l-0.681-0.115l-0.187,0.574
		c-7.9,26.503-20.685,43.734-35.075,43.698c-13.984-0.034-26.372-16.367-34.19-41.648l-0.614-2.066l-1.755,0.518
		c-25.801,6.46-46.297,4.329-53.579-7.663c-7.489-12.334,0.729-32.26,19.447-52.782l0.822-0.929l0.071-0.091l-0.892-1.02
		C34.279,102.951,26.061,83.025,33.55,70.691c7.282-11.992,27.777-14.123,53.579-7.663l1.755,0.518l0.614-2.066
		c7.818-25.281,20.206-41.614,34.19-41.648c14.39-0.036,27.175,17.195,35.075,43.698l0.187,0.574l0.681-0.115
		c27.176-6.566,48.734-4.149,55.941,8.423c7.243,12.635-0.962,31.844-20.558,52.082l0.112,0.118
		c19.596,20.238,27.688,39.329,20.445,51.964C208.365,189.147,186.807,191.564,159.631,184.998z"/>
	<path fill="#3E0154" d="M116.055,168.835l-2.036-1.16c-3.871-1.963-7.758-4.05-11.647-6.279c-4.525-2.595-8.895-5.28-13.095-8.034
		l-0.861-0.581l0.155,1.149c0.971,7.992,2.317,15.575,3.991,22.576l0.319,1.167l1.308-0.379c6.266-1.973,12.806-4.42,19.485-7.321
		L116.055,168.835z"/>
	<path fill="#3E0154" d="M190.301,128.739l-0.289,0.29c-6.318,6.246-13.626,11.995-21.639,18.022l-2.625,2.125l-0.487,3.041
		c-1.076,9.19-2.639,17.882-4.629,25.869l-0.193,0.754l0.698,0.152c23.525,5.903,41.991,4.595,47.813-5.562
		c5.896-10.284-1.015-26.397-18.317-44.366L190.301,128.739z"/>
	<path fill="#3E0154" d="M160.146,110.549l-0.5-5.38l-2.744-1.996c-4.459-3.113-9.106-6.159-13.936-9.092
		c-5.187-3.148-10.397-6.045-15.581-8.705c0.01-0.014,0.018-0.027,0.028-0.04l-3.271-1.805l-4.914,2.367
		c-4.542,2.254-9.11,4.688-13.671,7.302c-5.748,3.295-11.259,6.76-16.492,10.332l-1.385,0.967l-0.422,5.32
		c-0.295,5.02-0.453,7.47-0.441,12.68l0,1.315c-0.012,5.21,0.146,10.333,0.441,15.353l0.422,5.32l1.385,0.967
		c5.233,3.572,10.745,7.037,16.492,10.332c4.56,2.614,9.129,5.048,13.671,7.302l4.914,2.367l3.271-1.805
		c-0.01-0.013-0.018-0.026-0.028-0.04c5.184-2.66,10.395-5.557,15.581-8.705c4.83-2.933,9.477-5.979,13.936-9.092l2.744-1.996
		l0.5-5.38c0.299-4.839,0.472-9.771,0.482-14.779l0-1.003C160.618,117.647,160.446,115.388,160.146,110.549z M124.493,141.653
		c-11.259-0.354-17.084-9.279-17.475-16.885c-0.367-7.136,3.13-19.364,17.475-19.284c14.346,0.08,18.408,8.231,18.024,19.009
		C142.141,135.046,134.162,141.958,124.493,141.653z"/>
	<path fill="#3E0154" d="M146.336,160.405c-4.697,2.853-9.402,5.507-14.077,7.959l-0.746,0.398l0.718,0.337
		c7.411,3.163,14.652,5.807,21.554,7.888l0.519,0.161l0.215-0.536c1.811-7.35,3.259-15.345,4.296-23.77l0.089-0.617l-0.457,0.35
		C154.552,155.248,150.519,157.866,146.336,160.405z"/>
	<path fill="#3E0154" d="M125.691,173.233l-1.678-0.656l-4.776,1.997c-7.953,3.587-15.729,6.54-23.174,8.86l-1.398,0.401
		l0.558,2.136c6.715,22.015,16.896,36.34,28.208,36.368c11.639,0.027,22.226-15.22,29.104-38.397l0.199-0.752l-0.739-0.234
		C143.579,180.499,134.732,177.244,125.691,173.233z"/>
	<path fill="#3E0154" d="M151.515,68.029"/>
	<path fill="#3E0154" d="M161.514,67.997"/>
</g>
</svg>
