<?xml version="1.0" encoding="utf-8"?>
<!-- Generator: Adobe Illustrator 16.0.0, SVG Export Plug-In . SVG Version: 6.00 Build 0)  -->
<!DOCTYPE svg PUBLIC "-//W3C//DTD SVG 1.1//EN" "http://www.w3.org/Graphics/SVG/1.1/DTD/svg11.dtd">
<svg version="1.1" id="Layer_1" xmlns="http://www.w3.org/2000/svg" xmlns:xlink="http://www.w3.org/1999/xlink" x="0px" y="0px"
	 width="142.209px" height="142.115px" viewBox="5.67 141.217 142.209 142.115"
	 enable-background="new 5.67 141.217 142.209 142.115" xml:space="preserve">
<g>
	<path fill="#3E0154" d="M111.095,237.502H83.259v-49.487h27.836V237.502L111.095,237.502z M109.648,190.24H84.707v43.334h24.941
		V190.24z"/>
	<path fill="#3E0154" d="M46.427,219.961v-57.255H90.82v26.214c0.131-0.003,0.26-0.017,0.396-0.017c0.818,0,1.54,0.146,2.181,0.383
		v-29.522H43.852v65.393h40.032c-0.125-1.803-0.025-3.466,0.214-5.195H46.427L46.427,219.961z"/>
	<path fill="#3E0154" d="M137.79,178.201H92.371c0.081,0.49,0.109,1.01,0.036,1.585c-0.07,0.537-0.144,1.062-0.219,1.582
		c0.003,0,0.003,0,0.008,0c-0.005,0.013-0.012,0.021-0.012,0.033c-0.125,0.822-0.272,1.632-0.446,2.449h40.355v59.752h-109.1
		v-59.752h21.521c-0.535-1.861-0.226-4.029,0.924-5.649H17.298v74.519h51.725l-2.924,13.476h22.89l-3.021-13.476h51.822V178.201z"/>
</g>
</svg>
