<?xml version="1.0" encoding="utf-8"?>
<!-- Generator: Adobe Illustrator 16.0.0, SVG Export Plug-In . SVG Version: 6.00 Build 0)  -->
<!DOCTYPE svg PUBLIC "-//W3C//DTD SVG 1.1//EN" "http://www.w3.org/Graphics/SVG/1.1/DTD/svg11.dtd">
<svg version="1.1" id="Layer_1" xmlns="http://www.w3.org/2000/svg" xmlns:xlink="http://www.w3.org/1999/xlink" x="0px" y="0px"
	 width="249.675px" height="249.675px" viewBox="0 0 249.675 249.675" enable-background="new 0 0 249.675 249.675"
	 xml:space="preserve">
<path fill-rule="evenodd" clip-rule="evenodd" fill="#3E0154" d="M249.675,124.838c0,68.947-55.893,124.837-124.837,124.837
	C55.892,249.675,0,193.785,0,124.838C0,55.892,55.892,0,124.837,0C193.782,0,249.675,55.892,249.675,124.838z M87.382,163.327
	c-8.686,4.968-17.1,10.327-24.285,17.382c-6.355,6.243-10.13,13.644-9.602,22.76c0.539,9.293,5.547,14.523,14.792,15.529
	c10.926,1.188,20.553-2.193,28.721-9.256c13.289-11.494,17.215-26.2,13.723-43.118c-0.47-2.276-1.42-4.267,2.143-4.812
	c11.313-1.729,22.279-0.994,32.006,5.523c10.633,7.123,11.216,16.931,2.006,25.588c-0.764,0.715-2.156,1.3-1.193,2.564
	c0.818,1.074,2.052,0.33,3.062-0.041c6.612-2.423,11.135-9.981,10.216-17.371c-1.433-11.502-8.456-18.559-18.753-22.707
	c-10.365-4.18-21.031-3.234-31.698-1.348c-1.762,0.313-3.612,1.396-5.236-0.238c-9.54-9.592-21.587-16.255-30.778-26.232
	C63,117.229,61.932,106.102,69.036,93.988c2.646-4.507,5.843-8.62,9.779-11.993c22.218-19.043,47.209-32.305,76.636-35.99
	c7.592-0.95,15.158-0.396,22.501,1.941c10.815,3.441,14.794,11.318,11.227,22.079c-1.832,5.527-4.807,10.384-8.724,14.67
	c-13.981,15.293-31.722,22.548-52.051,23.838c-7.532,0.477-14.734-1.16-20.676-6.372c-1.049-0.919-2.043-2.858-3.591-1.685
	c-1.702,1.292-0.413,3.123,0.415,4.478c4.396,7.179,11.244,10.695,19.255,11.625c20.43,2.369,39.367-2.09,56.315-13.844
	c9.133-6.335,15.975-14.805,20.527-24.997c9.105-20.388,1.705-37.371-19.417-44.323c-9.431-3.102-19.186-3.886-29.049-2.84
	c-28.617,3.032-53.375,15.416-76.332,31.929c-9.37,6.739-17.422,14.898-23.622,24.729c-10.098,16.011-9.005,28.283,3.686,42.233
	c6.267,6.887,13.697,12.372,21.231,17.754c5.512,3.935,11.456,7.312,16.81,12.439C91.513,161.021,89.435,162.152,87.382,163.327z
	 M78.379,205.849c-7.487,1.956-11.201-1.527-9.402-9.06c1.789-7.5,6.543-13.084,12.264-17.955c4.225-3.596,8.781-6.725,13.624-9.427
	c4.794-2.673,5.497-2.317,6.001,2.985c0.103,1.096,0.015,2.208,0.015,3.313C100.927,189.402,91.083,202.527,78.379,205.849z"/>
</svg>
