<?xml version="1.0" encoding="utf-8"?>
<!-- Generator: Adobe Illustrator 16.0.0, SVG Export Plug-In . SVG Version: 6.00 Build 0)  -->
<!DOCTYPE svg PUBLIC "-//W3C//DTD SVG 1.1//EN" "http://www.w3.org/Graphics/SVG/1.1/DTD/svg11.dtd">
<svg version="1.1" id="Layer_1" xmlns="http://www.w3.org/2000/svg" xmlns:xlink="http://www.w3.org/1999/xlink" x="0px" y="0px"
	 width="167.16px" height="139.3px" viewBox="0 0 167.16 139.3" enable-background="new 0 0 167.16 139.3" xml:space="preserve">
<path fill-rule="evenodd" clip-rule="evenodd" fill="#3E0154" d="M167.16,139.3H0V27.86h167.16V139.3z M115.947,0H51.213v27.86
	h64.733V0z M107.806,7.279H59.353v20.854h48.453V7.279z M120.534,62.902h-10.652v23.764h10.652V62.902z M119.236,65.797h-8.058
	v17.976h8.058V65.797z M57.131,62.902H46.479v23.764h10.652V62.902z M55.834,65.797h-8.058v17.976h8.058V65.797z M46.479,71.835H0
	v2.596h46.479V71.835z M109.881,71.835h-52.75v2.596h52.75V71.835z M167.16,71.835h-46.626v2.596h46.626V71.835z"/>
</svg>
